<svg width="14" height="13" viewBox="0 0 14 13" fill="none" xmlns="http://www.w3.org/2000/svg">
<path d="M7.982 11.415L12.8461 2.82293C12.9464 2.63916 12.9994 2.43082 13 2.21862C13.0006 2.00642 12.9486 1.79776 12.8493 1.6134C12.75 1.42904 12.6068 1.27542 12.4339 1.1678C12.2611 1.06018 12.0646 1.00233 11.8641 1L2.13592 1C1.93538 1.00233 1.73892 1.06018 1.56607 1.1678C1.39323 1.27542 1.25003 1.42904 1.15071 1.6134C1.0514 1.79776 0.999442 2.00642 1 2.21862C1.00057 2.43082 1.05363 2.63916 1.15392 2.82293L6.018 11.415C6.12037 11.5936 6.26452 11.7412 6.43653 11.8437C6.60854 11.9462 6.8026 12 7 12C7.1974 12 7.39146 11.9462 7.56347 11.8437C7.73548 11.7412 7.87963 11.5936 7.982 11.415V11.415Z" stroke="#ACAAAA" stroke-width="2" stroke-linecap="round" stroke-linejoin="round"/>
</svg>
