<svg width="29" height="33" viewBox="0 0 29 33" fill="none" xmlns="http://www.w3.org/2000/svg">
<path d="M25 15.4668H4C2.34315 15.4668 1 16.8127 1 18.4729V28.9941C1 30.6543 2.34315 32.0001 4 32.0001H25C26.6569 32.0001 28 30.6543 28 28.9941V18.4729C28 16.8127 26.6569 15.4668 25 15.4668Z" stroke="black" stroke-width="2" stroke-linecap="round" stroke-linejoin="round"/>
<path d="M7.51709 15.4667V9.03704C7.51709 6.90548 8.25277 4.86123 9.56229 3.35399C10.8718 1.84676 12.6479 1 14.4998 1C16.3518 1 18.1279 1.84676 19.4374 3.35399C20.7469 4.86123 21.4826 6.90548 21.4826 9.03704V15.4667" stroke="black" stroke-width="2" stroke-linecap="round" stroke-linejoin="round"/>
<path d="M17.2003 21.667L14.5656 27.867L11.8003 21.667" stroke="black" stroke-width="2" stroke-linecap="round" stroke-linejoin="round"/>
</svg>
